<?xml version="1.0" encoding="UTF-8" standalone="no"?>
<!-- Created with Inkscape (http://www.inkscape.org/) -->

<svg
   width="91.444504mm"
   height="18.400272mm"
   viewBox="0 0 91.444504 18.400272"
   version="1.1"
   id="svg5"
   xmlns="http://www.w3.org/2000/svg"
   xmlns:svg="http://www.w3.org/2000/svg"
   xmlns:rdf="http://www.w3.org/1999/02/22-rdf-syntax-ns#"
   xmlns:cc="http://creativecommons.org/ns#"
   xmlns:dc="http://purl.org/dc/elements/1.1/">
  <title
     id="title699">IndieVisionRedGreen</title>
  <defs
     id="defs2">
    <rect
       x="76.443993"
       y="524.37897"
       width="339.30405"
       height="158.25249"
       id="rect693" />
    <rect
       x="48.280418"
       y="297.72925"
       width="129.26472"
       height="58.969101"
       id="rect113" />
  </defs>
  <g
     id="layer1"
     transform="translate(-68.254349,-87.422033)">
    <g
       aria-label="Vision"
       transform="matrix(0.46956567,0,0,0.46270491,81.119595,-51.59366)"
       id="text111"
       style="font-size:48.4374px;font-family:'Rockwell Std';-inkscape-font-specification:'Rockwell Std';letter-spacing:-1.18px;word-spacing:-11.41px;white-space:pre;shape-inside:url(#rect113);display:inline;fill:#42b883">
      <path
         d="m 58.501542,339.62687 h 6.490611 L 81.412432,303.78319 H 74.534321 L 63.92653,328.43783 62.521846,303.78319 h -7.168735 z"
         style="font-style:italic;font-weight:bold;font-stretch:condensed;font-family:'ITC Avant Garde Gothic Std';-inkscape-font-specification:'ITC Avant Garde Gothic Std Bold Italic Condensed'"
         id="path3112" />
      <path
         d="m 83.138664,309.20818 h 6.490612 l 1.017185,-5.42499 h -6.490612 z m -5.618739,30.41869 h 6.490612 l 5.085927,-27.51245 h -6.490611 z"
         style="font-style:italic;font-weight:bold;font-stretch:condensed;font-family:'ITC Avant Garde Gothic Std';-inkscape-font-specification:'ITC Avant Garde Gothic Std Bold Italic Condensed'"
         id="path3114" />
      <path
         d="m 109.56798,320.25191 c 0.62968,-5.32812 -1.55,-8.71874 -7.60468,-8.71874 -6.199983,0 -9.9781,3.39062 -10.849974,7.99218 -1.017185,5.47342 1.743747,7.31404 4.649991,8.37967 2.906244,1.01718 5.957803,1.25937 5.521863,3.6328 -0.24219,1.35625 -1.11406,2.76093 -3.196868,2.76093 -2.131246,0 -3.342181,-1.40468 -3.051556,-3.48749 h -6.490612 c -0.629686,6.49061 3.003119,9.39686 8.282796,9.39686 5.66718,0 10.46248,-3.875 11.38279,-9.00936 1.06562,-5.61874 -1.69531,-7.41092 -4.64999,-8.42811 -2.90625,-0.96875 -5.957802,-1.1625 -5.521865,-3.48749 0.242187,-1.25937 1.210935,-2.13125 2.712495,-2.13125 1.98593,0 2.61562,1.06563 2.32499,3.1 z"
         style="font-style:italic;font-weight:bold;font-stretch:condensed;font-family:'ITC Avant Garde Gothic Std';-inkscape-font-specification:'ITC Avant Garde Gothic Std Bold Italic Condensed'"
         id="path3116" />
      <path
         d="m 115.75047,309.20818 h 6.49061 l 1.01719,-5.42499 h -6.49061 z m -5.61874,30.41869 h 6.49062 l 5.08592,-27.51245 h -6.49061 z"
         style="font-style:italic;font-weight:bold;font-stretch:condensed;font-family:'ITC Avant Garde Gothic Std';-inkscape-font-specification:'ITC Avant Garde Gothic Std Bold Italic Condensed'"
         id="path3118" />
      <path
         d="m 122.99857,325.87065 c -1.50156,7.94373 0.72657,14.33747 7.94374,14.33747 7.21717,0 11.77029,-6.39374 13.27185,-14.33747 1.45312,-7.94374 -0.775,-14.33748 -7.99218,-14.33748 -7.21717,0 -11.77028,6.39374 -13.22341,14.28904 z m 6.87812,0 c 1.16249,-6.49062 2.95468,-8.23436 5.13436,-8.23436 2.37343,0 3.48749,1.74374 2.32499,8.23436 -1.21093,6.49061 -3.00311,8.23435 -5.1828,8.23435 -2.37343,0 -3.48749,-1.74374 -2.32499,-8.18592 z"
         style="font-style:italic;font-weight:bold;font-stretch:condensed;font-family:'ITC Avant Garde Gothic Std';-inkscape-font-specification:'ITC Avant Garde Gothic Std Bold Italic Condensed'"
         id="path3120" />
      <path
         d="m 144.77791,339.62687 h 6.49061 l 3.39062,-18.40621 c 0.43593,-2.325 1.84062,-3.19687 3.53593,-3.19687 2.27655,0 2.37343,1.74374 2.03437,3.6328 l -3.34218,17.97028 h 6.49061 l 3.72968,-20.10152 c 1.01718,-5.57031 -1.30781,-7.99218 -5.66718,-7.99218 -3.39062,0 -4.98905,1.25938 -6.44217,3.19687 l 0.48437,-2.61562 h -5.61874 z"
         style="font-style:italic;font-weight:bold;font-stretch:condensed;font-family:'ITC Avant Garde Gothic Std';-inkscape-font-specification:'ITC Avant Garde Gothic Std Bold Italic Condensed'"
         id="path3122" />
    </g>
    <g
       aria-label="Indie"
       transform="matrix(0.26458333,0,0,0.26458333,48.258064,-53.935484)"
       id="text691"
       style="font-size:85.3333px;font-family:'Jyms Steak';-inkscape-font-specification:'Jyms Steak';white-space:pre;shape-inside:url(#rect693);display:inline;fill:#e15a97">
      <path
         d="m 89.072687,602.87261 c 1.28,-0.42667 8.447997,-2.38933 9.81333,-2.73066 1.792003,-0.42667 12.373323,-2.816 14.165323,-3.072 0.512,-0.0853 1.024,-0.17067 1.45067,-0.42667 2.47467,-1.45067 1.024,-4.94933 -1.70667,-4.69333 -1.536,0.0853 -9.30133,1.87733 -10.75199,2.21866 -1.36533,-9.72799 -3.413333,-19.37065 -4.949333,-29.09865 -0.511999,-3.072 -0.938666,-6.144 -1.450666,-9.13066 -0.08533,-0.42667 -0.256,-1.28 -0.511999,-2.47467 l -1.536,-7.76533 c -0.256,-1.19466 -0.426666,-2.048 -0.512,-2.47466 -0.08533,-0.17067 -0.08533,-0.34134 0.08533,-0.34134 1.279999,-0.256 9.045334,-1.536 10.325324,-1.70666 2.90134,-0.42667 2.73067,-4.77867 -0.256,-5.03467 -0.42666,-0.0853 -0.93866,0 -1.36533,0.0853 -2.047997,0.512 -4.181329,0.68266 -6.314662,1.02399 -2.730665,0.42667 -5.375998,1.024 -8.02133,1.536 -2.986665,0.512 -6.058664,0.85334 -9.045329,1.28 -0.768,0.0853 -1.706666,0.34134 -2.218666,0.93867 -0.597333,0.59733 -0.853333,1.792 -0.597333,2.64533 0.170666,0.512 0.597333,0.93867 0.853333,1.45067 1.706666,2.21866 2.389332,3.92533 2.815998,6.656 0.170667,1.45066 1.365333,2.30399 2.559999,2.30399 0.853333,0 1.792,-0.512 2.218666,-1.45066 0.938666,-1.70667 -0.768,-5.97333 -1.706666,-7.76533 -0.08533,-0.17067 0,-0.17067 0.256,-0.17067 1.791999,-0.256 3.498665,-0.512 5.290665,-0.85333 0.341333,1.62133 2.218665,10.92266 2.559999,12.45866 0.682666,3.584 1.109332,7.25333 1.706665,10.83733 1.621333,9.38666 3.583999,18.77332 4.778665,28.24532 -1.365333,0.34133 -8.447996,2.21867 -9.727996,2.73067 -2.986665,1.19466 -1.279999,5.88799 1.791999,4.77866 z"
         id="path3125" />
      <path
         d="m 127.55793,599.11795 c 0.42667,-0.68267 0.34133,-1.536 0.256,-2.21867 -0.59733,-7.33866 -1.10933,-14.93333 0.59733,-22.01599 1.19467,-5.12 3.84,-10.15466 7.50933,-13.99466 0,0 0.17067,-0.0853 0.17067,-0.0853 1.70666,4.18133 2.56,22.52799 2.64533,26.96532 0.0853,1.28 0.0853,6.91199 -0.34133,8.19199 -0.68267,2.13334 1.024,3.584 2.64533,3.584 1.024,0 1.96267,-0.512 2.304,-1.87733 0.256,-0.59733 0.34133,-3.84 0.42667,-4.52267 0.34133,-5.11999 -0.0853,-10.23999 -0.42667,-15.35999 -0.34133,-5.03466 -0.42667,-10.06933 -1.36533,-15.10399 -0.34134,-1.87733 -0.85334,-3.84 -1.96267,-5.376 -0.85333,-1.28 -2.304,-2.304 -3.84,-2.21867 -2.048,0.0853 -3.66933,1.87734 -5.03466,3.49867 -3.584,4.18133 -6.22933,9.30133 -7.59467,14.67733 -0.0853,0.256 -0.0853,0.17066 -0.0853,-0.0853 -0.256,-1.28 -3.072,-16.12799 -3.328,-16.63999 -0.512,-1.024 -1.45066,-1.62133 -2.47466,-1.62133 -0.68267,0 -1.36534,0.34133 -1.87734,0.85333 -0.768,0.768 -0.93866,1.96267 -1.28,2.98667 -1.024,2.90133 -2.55999,5.71733 -4.52266,8.10666 -1.45067,1.96267 0.0853,4.26666 1.96267,4.26666 2.04799,0 4.09599,-3.66933 4.86399,-5.20533 0.93867,4.52267 1.792,9.13067 2.47467,13.73866 0.42667,2.73067 2.73066,16.384 3.584,18.944 0.42666,1.19466 1.536,1.792 2.56,1.792 0.85333,0 1.70666,-0.42667 2.13333,-1.28 z"
         id="path3127" />
      <path
         d="m 163.99528,599.80061 c 3.584,-1.10933 6.57067,-4.77866 8.27733,-8.02133 0.17067,1.024 0.68267,5.12 1.10934,6.05867 0.512,0.85333 1.36533,1.36533 2.21866,1.36533 0.85333,0 1.70667,-0.42667 2.21867,-1.19467 0.42666,-0.68266 0.59733,-2.38933 0.34133,-3.15733 0,-0.0853 -0.0853,-0.17067 -0.0853,-0.17067 l -0.17067,-0.42666 c 0,-0.0853 -0.0853,-0.0853 -0.0853,-0.17067 -0.512,-3.41333 -1.024,-6.912 -1.536,-10.32533 0.42666,-1.024 2.13333,-5.03466 2.21866,-6.144 0.0853,-1.96266 -1.70666,-3.49866 -3.49866,-2.90133 -0.512,-3.92533 -3.66933,-27.47732 -4.096,-31.40265 0,-0.0853 -0.0853,-0.34133 0,-0.34133 0.512,0.512 3.66933,3.07199 4.18133,3.41333 0.512,0.42666 1.024,0.59733 1.62133,0.59733 2.048,0 3.66934,-2.73066 1.70667,-4.43733 -1.87733,-1.70667 -4.01066,-3.072 -5.80266,-4.864 -1.024,-1.10933 -1.87734,-2.47466 -3.24267,-3.15733 -0.34133,-0.17067 -0.768,-0.256 -1.10933,-0.256 -1.36533,0 -2.56,0.93867 -2.816,2.304 -0.34133,2.048 0.768,10.92266 1.024,12.97066 0.17067,1.28 0.34133,2.64533 0.512,3.92533 l 1.10933,7.936 c 0.17067,1.36533 0.34133,2.64533 0.512,4.01066 -2.64533,-4.86399 -6.57066,-9.81333 -12.37333,-10.75199 -3.15733,-0.34134 -6.22933,0.85333 -8.19199,3.24266 -1.28,1.62134 -1.96267,3.66933 -2.304,5.632 -1.024,5.54666 -0.0853,11.34933 1.45066,16.72533 1.792,5.97333 5.71733,16.04266 11.69067,19.02932 1.53599,0.85334 3.49866,0.93867 5.11999,0.512 z m -3.75466,-5.71733 c -5.80267,-5.03466 -9.55733,-17.32266 -9.81333,-24.83199 0,-2.304 0.0853,-4.864 0.93866,-6.99733 0.85334,-1.87733 2.56,-2.816 4.608,-2.38933 7.936,1.536 12.544,18.26132 14.25066,24.66132 -1.10933,2.56 -4.77866,10.41066 -8.19199,10.41066 -0.68267,0 -1.28,-0.42666 -1.792,-0.85333 z"
         id="path3129" />
      <path
         d="m 187.54731,547.14997 c 2.048,-0.768 3.84,-3.24267 3.41333,-5.376 -0.34133,-2.13333 -2.64533,-3.24267 -4.77866,-2.73067 -1.024,0.256 -2.304,0.42667 -3.072,1.28 -2.47467,2.816 -0.256,7.08267 2.98666,7.08267 0.512,0 0.93867,-0.0853 1.45067,-0.256 z m 6.656,49.91998 c -0.34134,-0.59734 -0.93867,-3.66934 -1.10933,-4.26667 -1.536,-7.25333 -2.38934,-14.67733 -2.73067,-22.01599 -0.256,-4.43733 0.0853,-8.96 1.45067,-13.14133 0.256,-0.93866 0.768,-1.87733 0.59733,-2.816 -0.17067,-1.36533 -1.28,-2.30399 -2.56,-2.30399 -0.42667,0 -0.93867,0.17066 -1.45067,0.51199 -0.512,0.42667 -2.64533,2.90134 -3.15733,3.41334 -1.792,1.96266 -3.84,3.92533 -6.22933,5.11999 -0.512,0.256 -1.10933,0.59734 -1.36533,1.10934 -1.19467,1.96266 0.42666,3.92533 2.304,3.92533 1.19466,0 4.69333,-2.47467 5.37599,-3.15733 -0.42666,4.608 -0.0853,9.21599 0.34134,13.82399 0.59733,6.4 1.62133,12.71466 2.98666,19.02933 0.0853,0.512 0.68267,3.072 0.93867,3.584 0.256,0.59733 0.93867,1.10933 1.536,1.27999 2.304,0.59734 4.18133,-1.96266 3.072,-4.09599 z"
         id="path3131" />
      <path
         d="m 215.87801,598.43528 c 2.816,-0.512 5.376,-2.90133 6.82666,-5.46133 1.70667,-2.98667 2.304,-6.74133 1.792,-10.15466 0.59733,-0.256 3.24267,-1.45067 3.75467,-1.87734 2.13333,-1.96266 -0.17067,-5.46133 -2.73067,-4.26666 -2.56,1.28 -5.20533,2.47466 -7.68,3.75466 -0.34133,0.17067 -1.792,0.768 -2.048,0.93867 -2.30399,1.87733 -0.256,5.46133 2.47467,4.43733 0.42667,-0.17067 0.85333,-0.34133 1.28,-0.512 -0.0853,1.87733 -0.512,3.84 -1.45067,5.46133 -0.68266,1.10934 -2.38933,2.816 -3.66933,2.64533 -3.584,-0.34133 -7.08266,-6.39999 -8.36266,-9.72799 0.0853,0 0,-0.17067 0,-0.17067 5.71733,-3.66933 14.67733,-12.03199 16.04266,-19.19999 0.93867,-5.54666 -1.792,-11.51999 -7.33866,-12.37333 -1.792,-0.256 -3.66934,0.17067 -5.29067,1.024 -4.096,1.96267 -6.99733,6.22933 -8.53333,10.496 -2.048,5.46133 -2.13333,11.86133 -0.93867,17.57866 -0.34133,0.34133 -1.27999,0.59733 -1.79199,0.59733 l -0.512,-0.0853 c -0.17067,0 -0.256,0 -0.34134,0 -2.64533,0.0853 -3.41333,3.66933 -1.024,4.86399 0.59734,0.256 1.19467,0.42667 1.87734,0.42667 1.10933,0 2.30399,-0.34133 3.32799,-0.85333 1.45067,3.75466 3.584,7.33866 6.74133,9.89866 2.048,1.62133 4.94934,2.98667 7.59467,2.56 z m -9.472,-34.98665 c 1.28,-2.73067 4.52267,-6.74133 7.50933,-6.48533 0.85334,0.17066 1.62133,0.68266 2.13333,1.36533 1.19467,1.536 1.36534,3.84 0.85334,5.71733 -1.36534,4.864 -8.27733,11.43466 -12.20266,14.16533 -0.768,-4.864 -0.34134,-10.32533 1.70666,-14.76266 z"
         id="path3133" />
    </g>
  </g>
  <metadata
     id="metadata697">
    <rdf:RDF>
      <cc:Work
         rdf:about="">
        <dc:title>IndieVisionRedGreen</dc:title>
      </cc:Work>
    </rdf:RDF>
  </metadata>
</svg>
